<svg width="240" height="234" viewBox="0 0 240 234" fill="none" xmlns="http://www.w3.org/2000/svg">
<path d="M129.713 71.9643C139.541 71.7378 149.974 71.9031 159.887 71.8174C158.559 86.7331 159.971 103.186 158.717 118.414C158.169 125.088 159.678 135.479 159.449 142.679C159.245 149.151 158.77 161.979 159.739 167.98C149.652 167.79 139.562 167.79 129.475 167.98C130.534 153.309 129.354 138.314 129.941 123.637C129.956 123.257 131.495 119.938 131.773 119.002L130.544 118.273C129.074 115.573 129.714 78.1241 129.713 71.9643ZM140.118 151.968C140.256 150.058 140.162 148.282 140.121 146.365L140.099 144.939L139.498 144.743C138.702 147.694 138.783 148.178 139.112 151.239C139.919 151.986 139.522 151.87 140.118 151.968ZM148.549 144.639C149.078 141.712 149.601 140.647 147.966 138.234C147.663 141.051 147.271 142.134 148.549 144.639Z" fill="white"/>
<path d="M136.37 101.557L137.255 102.255C138.133 104.784 137.804 108.023 137.748 110.803L136.759 109.952C135.965 107.288 136.285 104.392 136.37 101.557Z" fill="white"/>
<path d="M147.475 90.3762C147.443 88.0923 147.226 84.6389 148.148 82.6611C149.084 84.4246 148.865 87.0881 148.89 89.2067L147.475 90.3762Z" fill="white"/>
<path d="M147.728 130.433C149.445 131.768 148.871 135.503 148.901 137.683L148.08 137.046C147.248 135.019 147.609 132.68 147.728 130.433Z" fill="white"/>
<path d="M140.118 151.968C139.522 151.87 139.919 151.986 139.112 151.239C138.783 148.178 138.702 147.694 139.498 144.743L140.099 144.939L140.121 146.365C139.562 149.145 139.515 149.255 140.118 151.968Z" fill="white"/>
<path d="M147.966 138.234C149.6 140.646 149.078 141.712 148.549 144.639C147.271 142.134 147.663 141.05 147.966 138.234Z" fill="white"/>
<path d="M147.475 90.3761L148.89 89.2065C148.769 92.1089 149.26 91.919 147.807 93.7192L147.09 93.1497C147.15 91.5516 147.059 91.9068 147.475 90.3761Z" fill="white"/>
<path d="M154.321 109.174L154.936 109.076C155.572 110.546 155.992 111.342 155.208 112.658C154.035 111.342 154.432 111.415 154.321 109.174Z" fill="white"/>
<path d="M147.983 149.286L149.405 149.372C149.318 150.97 149.389 151.099 148.852 152.58C147.871 151.515 148.17 151.099 147.983 149.286Z" fill="white"/>
<path d="M147.983 149.286C148.439 147.131 147.884 147.59 149.104 146.763C149.563 148.08 149.545 147.982 149.405 149.372L147.983 149.286Z" fill="white"/>
<path d="M153.887 117.642C154.754 119.246 154.593 119.344 154.644 121.212L154.194 121.347L153.601 120.967L153.887 117.642Z" fill="white"/>
<path d="M136.751 97.2281L137.171 97.124L137.829 97.5466L137.435 99.8672L137.122 99.959L136.516 99.4998L136.751 97.2281Z" fill="white"/>
<path d="M140.118 151.968C139.515 149.256 139.562 149.146 140.121 146.366C140.162 148.282 140.256 150.058 140.118 151.968Z" fill="white"/>
<path d="M139.388 127.292L140.161 127.108C140.664 128.437 140.476 128.217 140.463 129.76L140.019 129.582L139.388 127.292Z" fill="white"/>
<path d="M147.829 76.4648H148.839L148.582 78.3079L147.536 78.3508L147.829 76.4648Z" fill="white"/>
<path d="M81.6634 71.9764L111.799 71.811C111.129 78.2892 113.053 80.7017 109.239 86.6656L110.471 86.7819C114.067 89.623 109.486 117.293 111.081 121.475C111.848 123.483 112.21 164.869 111.458 167.624L110.36 167.943C100.998 167.667 91.1634 167.888 81.7602 167.955C81.5251 162.836 81.3585 124.212 82.479 120.006C83.8757 119.442 83.2542 119.761 84.3668 119.087C83.7141 118.371 84.0698 118.64 83.0565 118.144C79.0367 116.166 84.7293 106.7 83.1097 102.788C80.8215 97.2523 81.8006 78.773 81.6634 71.9764ZM91.8449 149.292C92.7474 145.857 92.9335 140.738 91.8149 137.303C90.9411 140.885 90.9062 145.741 91.8449 149.292ZM91.4548 130.035C91.3636 131.958 91.0134 132.215 91.8283 133.58C92.7805 132.515 92.5539 131.315 92.3347 130.035H91.4548Z" fill="white"/>
<path d="M100.545 151.105L101.848 151.962C102.595 155.691 102.265 158.979 102.13 162.788L101.475 162.286C100.676 160.657 100.632 153.328 100.545 151.105Z" fill="white"/>
<path d="M91.8448 149.292C90.9061 145.741 90.941 140.885 91.8148 137.303C91.8277 141.253 91.9024 145.361 91.8448 149.292Z" fill="white"/>
<path d="M91.8149 137.303C92.9336 140.738 92.7475 145.857 91.845 149.292C91.9025 145.361 91.8278 141.253 91.8149 137.303Z" fill="white"/>
<path d="M91.5994 123.637C92.6703 126.27 92.7493 125.082 91.8516 127.341L91.7543 127.292C90.8052 125.914 91.2412 125.89 91.5994 123.637Z" fill="white"/>
<path d="M100.883 94.1665L101.751 94.3012C101.691 95.7707 102.193 95.8565 101.78 97.773C100.863 96.7504 101.085 95.8565 100.883 94.1665Z" fill="white"/>
<path d="M91.4548 130.035H92.3347C92.5539 131.315 92.7805 132.515 91.8283 133.58C91.8957 132.484 91.6183 131.162 91.4548 130.035Z" fill="white"/>
<path d="M91.4549 130.035C91.6184 131.162 91.8957 132.484 91.8284 133.58C91.0134 132.215 91.3637 131.958 91.4549 130.035Z" fill="white"/>
<path d="M15.4644 96.0032C20.1258 69.9129 39.7049 45.5861 62.1967 32.2501C65.0347 30.5662 70.7695 26.8924 74.0233 26.8251C74.0393 28.3681 74.0644 28.5518 74.3821 30.058C75.9705 29.4396 75.2547 29.9049 76.2852 28.2517L75.7476 26.3107C78.1337 22.9614 96.3633 18.4671 100.745 18.0752C101.936 18.9814 109.397 32.0786 110.926 34.6136C91.7079 39.7263 78.0266 40.7611 61.8483 56.1422C60.0456 54.5992 58.2687 53.0255 56.5175 51.4274L56.2794 51.1642C54.0793 48.6476 53.4254 47.4046 50.3033 46.2045L48.7995 46.6086L48.2533 47.6862C49.7032 50.8886 54.7082 56.6687 56.9805 60.3854C51.1636 66.833 46.6466 72.656 42.6415 80.3711C41.0911 83.353 39.2481 87.5534 36.5319 89.4087C35.202 87.3085 36.279 85.4961 36.8907 82.2631C35.6471 84.0388 35.0924 86.09 34.3821 88.1535C33.3865 90.2415 32.9028 90.5354 32.9591 92.6662C34.0851 91.3314 34.2082 91.2028 35.0263 89.672L36.3844 90.0087C37.3273 91.8395 33.6284 108.237 33.0602 111.935C27.7907 107.711 20.9506 100.785 15.4644 96.0032ZM22.8996 87.7983C25.0794 82.3304 26.6487 78.6811 29.5192 73.5072C30.5075 71.7253 34.0288 65.7554 34.5456 64.2002L34.0282 63.8388C29.6815 69.221 22.5879 80.4629 22.531 87.3697L22.8996 87.7983ZM89.3279 35.0177L85.5071 36.2913L86.5021 37.1669L90.1863 36.1076C92.6031 35.2871 94.6207 34.8034 96.6829 33.3032C94.4951 33.1869 91.5169 34.338 89.3279 35.0177Z" fill="white"/>
<path d="M34.028 63.8389L34.5454 64.2002C34.0286 65.7554 30.5073 71.7254 29.519 73.5072C26.6485 78.6812 25.0792 82.3305 22.8994 87.7984L22.5308 87.3698C22.5877 80.463 29.6812 69.221 34.028 63.8389Z" fill="white"/>
<path d="M89.3276 35.0181C91.5166 34.3384 94.4949 33.1873 96.6827 33.3036C94.6204 34.8037 92.6029 35.2875 90.1861 36.108L89.3276 35.0181Z" fill="white"/>
<path d="M48.3861 62.9082L49.1227 63.1348C49.0125 64.4206 47.4401 65.8167 46.4053 67.0658C46.3153 64.9901 46.8339 65.0941 48.3861 62.9082Z" fill="white"/>
<path d="M86.5019 37.1671C84.7954 37.9448 84.1255 38.4223 82.2341 38.3795C83.0852 37.0508 83.7924 37.0936 85.5069 36.2915L86.5019 37.1671Z" fill="white"/>
<path d="M85.5068 36.2916L89.3276 35.0181L90.1861 36.108L86.5018 37.1673L85.5068 36.2916Z" fill="white"/>
<path d="M45.068 55.481L46.2118 56.1178C45.0386 57.1832 45.4825 57.4036 43.7699 58.5609C43.7638 56.6076 43.7007 57.5322 45.068 55.481Z" fill="white"/>
<path d="M45.0679 55.4812L46.8074 54.3057L47.4546 54.5628L46.2117 56.1181L45.0679 55.4812Z" fill="white"/>
<path d="M193.628 44.7598C210.798 63.6983 217.715 75.528 223.506 100.755C227.469 103.859 235.184 114.899 239.293 119.216C234.379 124.99 229.579 130.862 224.896 136.826C219.766 131.033 213.153 123.404 207.016 118.996C211.435 115.854 223.909 105.947 220.903 99.8916C218.474 100.13 207.957 111.323 205.43 113.773C204.514 100.112 201.124 89.9723 194.269 78.0813L193.557 76.6424C188.833 70.0357 187.162 67.1639 181.318 61.4756C183.327 58.2794 184.758 55.6281 187.469 52.9952L188.52 52.7932L189.652 54.1525C190.335 50.9869 188.799 53.3871 188.895 51.3971C188.963 49.9949 192.781 45.7823 193.628 44.7598ZM224.722 127.219C226.678 124.653 229.007 121.439 231.062 119.045C229.966 117.63 224.969 110.797 224.152 110.276C221.816 113.558 220.179 115.744 217.552 118.8C218.842 120.269 223.973 127.047 224.722 127.219ZM215.257 84.8412C214.23 82.2205 213.367 80.1816 212.15 77.6466C212.984 81.1429 213.751 84.5167 214.828 87.9456C215.7 90.9948 215.95 92.0909 217.357 94.8708L217.974 94.8953C217.759 91.0622 216.557 88.4477 215.257 84.8412ZM203.636 68.4866C204.434 68.3519 205.09 67.7885 205.334 67.017C205.578 66.2455 205.369 65.4066 204.792 64.8372C204.215 64.2739 203.369 64.078 202.604 64.3413C201.548 64.6964 200.943 65.8046 201.212 66.8884C201.482 67.9722 202.535 68.6641 203.636 68.4866ZM208.025 98.3609C207.596 96.3954 207.731 95.4096 206.59 94.0993C206.236 96.2852 206.507 96.8485 207.017 98.967C207.393 100.859 207.456 102.5 208.721 103.865C209.217 101.796 208.58 100.633 208.025 98.3609Z" fill="white"/>
<path d="M195.057 74.8604C196.538 73.0357 196.972 72.154 199.177 71.3335C198.935 73.0051 197.176 74.2297 195.831 75.5033L195.057 74.8604Z" fill="white"/>
<path d="M195.057 74.8604L195.831 75.5033L194.269 78.0811L193.557 76.6422L195.057 74.8604Z" fill="white"/>
<path d="M215.257 84.8413C216.557 88.4478 217.759 91.0624 217.974 94.8954L217.357 94.8709C215.951 92.091 215.7 90.9949 214.828 87.9457L215.257 84.8413Z" fill="white"/>
<path d="M202.604 64.3411C203.369 64.0778 204.215 64.2737 204.792 64.837C205.369 65.4064 205.578 66.2453 205.334 67.0168C205.09 67.7883 204.434 68.3517 203.636 68.4864C202.536 68.664 201.482 67.972 201.212 66.8882C200.943 65.8044 201.548 64.6962 202.604 64.3411Z" fill="white"/>
<path d="M208.025 98.3608C208.58 100.632 209.217 101.796 208.721 103.865C207.456 102.5 207.393 100.859 207.017 98.967L208.025 98.3608Z" fill="white"/>
<path d="M214.828 87.9454C213.751 84.5165 212.984 81.1427 212.15 77.6465C213.367 80.1814 214.231 82.2204 215.257 84.8411L214.828 87.9454Z" fill="white"/>
<path d="M207.017 98.9669C206.508 96.8483 206.236 96.285 206.59 94.0991C207.731 95.4095 207.596 96.3952 208.025 98.3607L207.017 98.9669Z" fill="white"/>
<path d="M120.912 0C125.866 5.88425 130.922 11.6828 136.077 17.3895C144.572 18.7549 159.861 21.9573 166.93 26.9782C167.595 28.2946 167.453 27.817 167.488 29.4029C173.633 30.1805 174.094 29.5866 179.555 33.5666C182.996 36.077 186.745 38.6181 190.21 41.2327C186.425 44.9861 183.741 47.9925 180.266 52.0582L178.346 49.7253C177.242 48.1333 175.773 45.9964 174.002 45.2984C174.229 47.0924 175.742 48.3599 177.017 49.8049L179.233 53.2522C177.656 55.4136 178.614 54.7952 176.563 55.7442C179.218 56.6566 150.599 39.7141 152.17 41.0551L152.515 39.659L150.079 39.8243C143.828 37.9262 137.963 36.1995 131.528 35.0361C135.308 29.8315 136.909 26.9537 139.704 21.1001L135.72 18.5529C131.033 25.9924 125.647 32.5624 121.337 40.1305C116.189 31.8337 112.072 25.7046 106.014 17.9222L120.912 0ZM114.547 17.5548C117.449 20.9898 118.847 23.6044 121.105 27.4864L121.74 27.4619C123.789 24.1983 125.948 21.0082 128.212 17.8916C125.105 14.7505 123.412 12.2033 120.855 8.60904C118.534 12.54 117.453 14.0096 114.547 17.5548Z" fill="white"/>
<path d="M150.079 39.8242C150.066 35.8136 148.876 36.3035 145.014 34.9564L144.776 34.2093C147.585 33.7868 151.581 35.7891 152.758 38.3792L152.515 39.6588L150.079 39.8242Z" fill="white"/>
<path d="M120.998 16.52L121.92 17.4874C121.869 19.5999 121.736 19.0794 120.127 21.1551C119.151 20.102 119.505 20.7388 119.165 19.1897L120.998 16.52Z" fill="white"/>
<path d="M145.346 23.3291C148.04 25.0742 160.168 25.6803 164.221 30.2358C162.067 30.0399 148.516 25.2333 145.643 24.2965L145.346 23.3291Z" fill="white"/>
<path d="M180.397 39.4019C182.88 40.2836 183.934 41.3367 185.03 43.6451C182.645 43.0022 181.794 41.3735 180.397 39.4019Z" fill="white"/>
<path d="M167.588 31.5156C170.327 31.534 171.901 32.7402 173.739 34.5342C170.724 33.8852 170.054 33.3158 167.588 31.5156Z" fill="white"/>
<path d="M34.105 125.596C36.3424 143.971 43.4782 159.426 56.0188 172.964C53.3314 176.375 51.6959 177.354 48.9387 179.95C47.3669 181.432 48.2701 187.757 43.1494 189.135L41.2347 187.543C34.7026 181.12 27.3911 170.362 23.2923 162.273C21.4738 158.685 23.6664 154.607 18.8378 151.129C17.7987 150.382 16.4915 144.057 16.0708 142.202C22.2361 136.605 27.6923 131.156 34.105 125.596ZM23.7589 149.574L23.7393 148.784C23.0113 146.959 23.2066 146.39 21.9061 145.808C21.7579 147.584 21.8577 147.56 22.3714 149.305L23.1821 152.593C25.2793 156.316 25.523 158.826 28.5428 162.91C28.4847 160.565 24.7637 152.023 23.7589 149.574ZM31.7397 136.569C32.3159 140.641 32.6269 142.808 35.0516 146.139C34.5299 143.439 33.6991 138.363 31.7397 136.569Z" fill="white"/>
<path d="M23.1824 152.592L23.7592 149.574C24.7639 152.023 28.4849 160.565 28.5431 162.91C25.5232 158.826 25.2795 156.315 23.1824 152.592Z" fill="white"/>
<path d="M31.7397 136.569C33.6991 138.363 34.53 143.439 35.0517 146.139C32.627 142.808 32.3159 140.641 31.7397 136.569Z" fill="white"/>
<path d="M39.4211 165.941C41.6058 167.355 41.8802 167.955 42.7429 170.233L42.3608 170.282C40.8876 169.358 40.4027 167.729 39.4211 165.941Z" fill="white"/>
<path d="M22.3716 149.304C21.8579 147.559 21.7581 147.584 21.9063 145.808C23.2068 146.39 23.0115 146.959 23.7395 148.784L22.3716 149.304Z" fill="white"/>
<path d="M23.7395 148.784L23.7591 149.574L23.1823 152.593L22.3716 149.305L23.7395 148.784Z" fill="white"/>
<path d="M205.986 125.633C211.639 131.254 217.38 136.783 223.208 142.22C219.341 157.467 207.3 179.209 194.833 190.2C193.889 191.033 192.747 191.1 191.581 190.911C189.802 188.78 185.285 182.351 183.435 180.648C183.04 180.287 180.573 181.144 179.7 181.426C179.21 178.309 187.822 171.09 189.8 167.925C191.271 165.561 194.211 160.093 196.724 159.689C196.497 164.312 194.949 167.429 193.349 171.843C196.362 167.294 199.205 164.453 197.28 158.887C196.879 156.162 199.289 151.276 200.397 148.545C203.501 140.898 205.488 133.93 205.986 125.633ZM209.831 163.828C211.952 160.895 216.748 152.991 215.979 149.488C214.566 152.458 209.709 161.618 209.831 163.828ZM206.557 142.832C206.031 144.602 205.044 146.825 205.428 148.355C206.824 146.488 206.897 145.729 207.527 143.518C208.272 141.424 209.227 139.428 208.997 137.267C207.634 138.516 207.143 140.947 206.557 142.832ZM207.229 155.715C208.548 154.625 209.221 153.217 209.191 151.478C208.04 153.113 206.951 153.97 206.958 155.568L207.229 155.715Z" fill="white"/>
<path d="M215.979 149.488C216.748 152.991 211.952 160.896 209.831 163.828C209.709 161.618 214.566 152.458 215.979 149.488Z" fill="white"/>
<path d="M206.557 142.832C207.143 140.947 207.634 138.516 208.997 137.267C209.228 139.428 208.272 141.424 207.527 143.518L206.557 142.832Z" fill="white"/>
<path d="M207.526 143.518C206.897 145.729 206.824 146.488 205.427 148.356C205.044 146.825 206.031 144.602 206.556 142.833L207.526 143.518Z" fill="white"/>
<path d="M209.191 151.478C209.221 153.217 208.548 154.625 207.229 155.715L206.958 155.568C206.951 153.97 208.039 153.113 209.191 151.478Z" fill="white"/>
<path d="M60.6235 177.605C64.2324 181.077 76.3168 189.863 77.2426 191.106L76.9898 192.478C75.4284 192.943 74.0495 192.251 72.4158 191.743C73.946 192.876 75.4529 194.174 77.2078 194.841C78.2842 193.323 77.9339 193.862 78.4311 191.939C81.7002 191.529 93.2801 197.523 97.6012 198.601C101.202 199.501 103.701 199.991 107.481 200.646L107.939 201.95C106.725 202.428 105.886 202.691 104.761 203.365L103.68 204.344L105.212 206.047L98.4455 217.588C94.7833 217.001 85.0814 215.347 82.7326 212.727L81.388 211.349L80.1793 211.863C75.4162 211.582 46.7823 198.197 47.4889 190.653C47.7688 187.671 52.1333 187.347 55.0631 184.585C55.1023 185.247 55.3038 186.159 55.425 186.839C56.9503 188.969 57.5381 189.086 59.931 190.396C58.7866 188.406 56.9894 185.877 55.0631 184.585C56.9717 181.891 58.5012 180.073 60.6235 177.605ZM83.9939 209.788C86.6207 210.59 89.2542 211.367 91.8945 212.121C93.9671 212.757 94.0939 212.935 96.3104 212.764C95.52 211.465 94.8623 211.661 92.9568 211.031C90.8517 210.798 85.5559 209.01 83.2732 208.294L83.1091 208.771L83.9939 209.788Z" fill="white"/>
<path d="M83.1091 208.772L83.2732 208.294C85.5559 209.01 90.8517 210.798 92.9568 211.031L91.8945 212.121C89.2542 211.368 86.6207 210.59 83.9939 209.788L83.1091 208.772Z" fill="white"/>
<path d="M92.9569 211.031C94.8624 211.661 95.52 211.466 96.3105 212.764C94.0939 212.935 93.9672 212.757 91.8945 212.121L92.9569 211.031Z" fill="white"/>
<path d="M103.68 204.345C101.644 203.947 98.6525 203.53 97.1621 202.122C99.4736 201.73 102.394 202.759 104.761 203.365L103.68 204.345Z" fill="white"/>
<path d="M83.1091 208.771L83.9939 209.788L82.7326 212.727L81.3879 211.349L83.1091 208.771Z" fill="white"/>
<path d="M136.439 211.435C134.791 207.914 131.107 204.767 131.38 201.05C149.947 197.175 162.258 193.513 177.122 180.808L182.214 187.163L182.739 188.321L184.719 191.866C186.395 192.968 187.798 193.942 189.598 194.86C184.678 198.54 177.231 204.479 171.737 206.58C165.55 210.737 147.774 217.509 140.376 217.534C139.461 215.776 139.668 215.978 139.279 213.988C139.651 213.786 143.428 212.794 144.074 212.623C145.362 212.054 145.063 212.176 146.195 211.288C144.671 210.688 143.148 211.38 141.459 211.833L139.227 212.317C137.112 212.188 137.98 212.562 136.439 211.435Z" fill="white"/>
<path d="M184.719 191.866C186.395 192.968 187.798 193.941 189.598 194.86C184.678 198.54 177.231 204.479 171.737 206.579L169.477 203.438C174.569 201.007 178.895 198.736 182.995 194.835L182.668 193.997L184.719 191.866Z" fill="white"/>
<path d="M182.668 193.997L182.995 194.835C178.895 198.736 174.569 201.007 169.477 203.438C167.48 204.583 168.442 204.534 166.564 204.253L166.771 203.359C173.139 200.946 170.376 199.005 173.767 196.942C174.57 198.448 173.962 197.983 175.394 198.613C177.941 197.695 180.422 195.631 182.668 193.997Z" fill="white"/>
<path d="M182.214 187.164L182.739 188.321C181.229 189.564 180.628 190.292 178.705 190.678C179.461 188.878 180.449 188.578 182.214 187.164Z" fill="white"/>
<path d="M157.423 203.126L157.532 203.248L157.433 204.02C154.118 205.79 150.285 206.8 146.666 207.939L146.34 207.235C149.359 205.532 153.987 204.234 157.423 203.126Z" fill="white"/>
<path d="M119.701 194.131C122.389 198.711 128.82 208.906 132.437 211.956L133.492 213.021L134.42 214.931C134.268 217.632 122.267 230.692 119.627 234.005C114.547 228.359 110.027 221.961 105.003 216.113C110.015 208.863 114.914 201.534 119.701 194.131ZM113.293 215.378L119.943 224.606C121.847 221.673 123.862 218.409 125.903 215.599C124.748 213.854 120.777 207.608 119.647 206.377C117.531 209.476 115.537 212.366 113.293 215.378Z" fill="white"/>
<path d="M14.6139 101.049C21.3964 107.227 23.5713 113.172 32.4277 118.996C25.3739 123.692 21.2011 129.227 16.1697 135.907L15.348 136.826C13.009 136.385 2.24716 121.996 0 119.222C5.23704 113.375 9.82504 107.258 14.6139 101.049ZM8.64084 118.916C9.7883 120.471 14.2177 127.255 15.2635 127.439C17.4029 124.476 19.6048 121.567 21.8672 118.702C21.0063 117.746 14.857 110.393 14.7461 110.307L8.64084 118.916Z" fill="white"/>
<path d="M176.303 142.771L177.713 147.008C177.845 153.676 179.033 167.245 176.44 172.382L175.875 172.431C176.481 163.938 176.016 151.968 176.303 142.771Z" fill="white"/>
<path d="M56.8389 71.6888C57.982 70.0417 58.3353 68.7864 59.7853 68.4619C60.6927 74.089 59.8918 87.627 59.9567 94.2215C59.7228 95.8931 59.4112 97.6688 59.3371 99.3404L58.7854 99.169C58.3874 93.646 59.3267 75.6565 57.4365 72.0868L56.8389 71.6888Z" fill="white"/>
<path d="M45.044 91.9497L45.8431 93.0151C45.9392 98.832 46.9777 117.918 46.3066 122.516L45.5424 122.124C44.2707 116.754 44.2468 97.4604 45.044 91.9497Z" fill="white"/>
<path d="M70.3891 91.558C70.2103 87.6454 69.317 60.0182 70.4295 58.665C71.697 61.1755 71.5751 69.0436 71.6168 72.2582C70.6579 79.7099 71.3639 84.8717 70.8832 91.7111L70.3891 91.558Z" fill="white"/>
<path d="M60.0081 144.07L61.2034 143.623C61.5475 147.462 62.4439 164.551 61.207 167.368C59.0523 163.663 59.9243 149.164 60.0081 144.07Z" fill="white"/>
<path d="M176.024 113.142L177.13 113.712C177.623 121.812 177.582 126.68 176.917 134.799L176.407 135.099L175.883 134.499C175.409 128.897 175.467 118.708 176.024 113.142Z" fill="white"/>
<path d="M175.314 83.0163C174.236 79.1894 174.408 69.864 175.089 65.7861L175.22 65.0391L175.074 65.3084L176.198 65.5901L174.923 65.884L176.271 66.2514L174.797 66.478L176.325 66.9127C176.405 69.0986 176.808 71.058 176.894 73.5439C176.753 77.083 177.072 80.0711 175.314 83.0163Z" fill="white"/>
<path d="M189.381 135.423L190.438 138.258C190.494 143.487 190.424 149.353 190.705 154.521L190.274 155.403L188.592 154.723C188.707 148.288 188.97 141.853 189.381 135.423Z" fill="white"/>
<path d="M189.726 84.1245C191.869 86.9656 191.027 96.5114 191 100.663C190.783 103.498 190.187 109.529 190.396 112.052C189.784 111.335 190 111.201 189.812 109.945C190.147 104.043 189.825 90.419 189.726 84.1245Z" fill="white"/>
<path d="M175.314 83.0164C177.072 80.0712 176.753 77.0831 176.894 73.5439C177.329 81.2835 176.989 91.4294 176.571 99.2302C175.229 96.585 175.96 85.8391 175.314 83.0164Z" fill="white"/>
<path d="M70.5526 118.806C72.079 122.829 71.4012 139.814 71.2481 144.859L70.4834 144.492C70.3738 135.932 70.397 127.366 70.5526 118.806Z" fill="white"/>
<path d="M179.647 82.7778C180.275 84.2841 180.605 84.9454 180.98 86.5496L181.748 83.1575C181.786 88.0559 181.927 92.4461 181.28 97.3323C179.916 95.722 179.725 85.123 179.647 82.7778Z" fill="white"/>
<path d="M60.0081 144.07C59.7699 140.977 58.7504 128.78 60.0178 126.331C61.2559 131.321 60.0123 139.698 61.2033 143.623L60.0081 144.07Z" fill="white"/>
<path d="M50.9698 102.249L51.2215 101.141C52.0787 104.043 51.7322 114.899 51.5785 118.444L50.9135 119.473L50.4628 118.353C50.2632 115.475 50.2932 112.193 50.2473 109.278C51.0207 106.223 50.9857 105.427 50.9698 102.249Z" fill="white"/>
<path d="M195.779 125.951L196.65 126.551C197.983 129.239 197.185 138.577 196.303 141.54C195.029 138.35 195.641 129.809 195.779 125.951Z" fill="white"/>
<path d="M190.417 118.548C191.492 121.524 191.511 152.237 190.705 154.521C190.424 149.353 190.494 143.488 190.438 138.258C190.523 131.688 190.516 125.118 190.417 118.548Z" fill="white"/>
<path d="M170.47 159.249C171.795 160.406 171.135 173.215 171.208 176.142L170.867 176.277L170.226 175.756C169.194 169.927 169.788 165.078 170.47 159.249Z" fill="white"/>
<path d="M112.172 43.4614L112.975 44.0982C113.917 47.2332 113.629 53.3869 113.378 56.6749L112.628 56.2831C111.612 52.8235 111.772 47.0495 112.172 43.4614Z" fill="white"/>
<path d="M71.1301 178.254C70.1143 175.083 70.1645 156.922 70.7419 153.432C71.473 154.987 71.4265 157.901 71.549 159.775C70.8215 164.031 70.9991 173.699 71.1301 178.254Z" fill="white"/>
<path d="M50.3032 46.2046C53.4254 47.4047 54.0793 48.6477 56.2793 51.1642L56.5175 51.4275C54.0236 52.3888 53.9238 52.4011 51.7409 51.1826C50.4134 49.0212 50.4857 48.8191 50.3032 46.2046Z" fill="white"/>
<path d="M45.5289 128.707C47.413 131.052 46.6696 139.005 46.6029 142.6C44.2131 140.775 45.3409 131.627 45.5289 128.707Z" fill="white"/>
<path d="M179.647 82.7778C179.517 80.5306 179.144 78.9753 180.224 77.0649L181.075 77.2976C182.127 79.7468 181.896 80.3898 181.748 83.1574L180.98 86.5496C180.605 84.9454 180.275 84.2841 179.647 82.7778Z" fill="white"/>
<path d="M71.13 178.254C70.999 173.699 70.8214 164.03 71.5488 159.775C71.7423 162.898 72.9987 176.54 71.5708 178.205L71.13 178.254Z" fill="white"/>
<path d="M189.381 135.423C189.493 131.254 189.2 121.867 190.417 118.548C190.516 125.118 190.523 131.688 190.438 138.258L189.381 135.423Z" fill="white"/>
<path d="M149.967 179.381L150.894 180.324C151.716 183.575 151.419 186.441 150.612 189.68L149.794 188.847C149.023 185.877 149.343 182.357 149.967 179.381Z" fill="white"/>
<path d="M108.528 177.281C109.33 181.604 109.229 189.117 109.033 193.648C106.977 189.031 108.083 182.43 108.528 177.281Z" fill="white"/>
<path d="M181.885 146.757L182.429 144.963C182.358 149.568 182.452 153.695 182.62 158.306L182.374 162.708L181.898 163.143C181.002 162.249 181.094 159.242 180.965 157.614L181.326 154.185C182.192 150.988 182.348 149.99 181.885 146.757Z" fill="white"/>
<path d="M197.28 158.887C199.205 164.453 196.362 167.294 193.349 171.844C194.949 167.429 196.497 164.312 196.724 159.689L197.28 158.887Z" fill="white"/>
<path d="M90.7367 177.593C92.5454 179.816 91.7311 186.319 91.4353 189.141C89.3461 186.588 90.4311 181.157 90.7367 177.593Z" fill="white"/>
<path d="M73.5211 56.9565L74.4916 57.8995C75.268 61.3897 75.069 64.4145 74.1579 67.8679C72.6828 66.0554 73.428 59.9323 73.5211 56.9565Z" fill="white"/>
<path d="M119.634 53.9565L119.906 54.0668C120.466 58.2856 120.73 60.098 120.603 64.3719L119.661 64.8311L119.707 65.1617L120.502 65.2903L120.174 66.3006L119.634 65.2842L120.432 65.125L120.461 64.7944L119.492 64.3719C119.154 61.1389 119.482 57.2507 119.634 53.9565Z" fill="white"/>
<path d="M189.812 109.945C188.88 105.108 188.805 88.8882 189.726 84.1245C189.825 90.419 190.147 104.043 189.812 109.945Z" fill="white"/>
<path d="M182.374 162.708C182.505 164.386 181.99 165.935 181.595 167.594L180.376 167.937C179.939 165.457 180.7 160.424 180.965 157.614C181.094 159.243 181.002 162.249 181.898 163.143L182.374 162.708Z" fill="white"/>
<path d="M56.4494 151.931L56.9864 152.378C57.8461 154.368 57.8577 159.891 57.9753 162.34L56.6845 162.046C55.9957 158.924 56.3416 155.201 56.4494 151.931Z" fill="white"/>
<path d="M150.689 48.415L151.559 49.3335C152.064 52.5542 151.735 56.0382 151.59 59.3324L150.7 58.7262C150.466 54.5993 150.363 52.5665 150.689 48.415Z" fill="white"/>
<path d="M51.4194 142.985C51.5492 145.104 52.1688 150.186 50.6693 151.558C49.7453 148.876 50.1519 146.286 50.2921 143.396L51.4194 142.985Z" fill="white"/>
<path d="M50.3877 92.3542C50.0956 88.9376 49.3363 85.6984 50.872 82.9614C50.9289 84.2167 50.8144 85.4168 51.3153 86.4577C51.4396 88.3926 52.0482 92.7828 51.3771 94.1911L50.8567 94.1238C50.8163 93.7319 50.5083 92.7767 50.3877 92.3542Z" fill="white"/>
<path d="M70.8833 91.7112C71.364 84.8718 70.658 79.71 71.6168 72.2583C71.667 77.7935 72.0057 88.962 71.3107 94.038L70.8833 91.7112Z" fill="white"/>
<path d="M132.981 181.114C134.133 182.932 133.728 190.788 133.531 193.195L132.935 193.691L132.522 193.378C132.975 190.549 132.789 184.481 132.981 181.114Z" fill="white"/>
<path d="M94.888 50.3498C94.9168 48.3966 94.6811 48.2679 95.5065 46.627C95.992 49.6701 95.9553 50.3069 95.6736 53.3929C95.654 55.3523 95.5524 57.973 95.7361 59.8588L95.0209 61.0039L94.7441 60.1283C95.0901 57.6607 94.9107 53.0011 94.888 50.3498Z" fill="white"/>
<path d="M50.292 143.396C50.4549 140.732 50.4708 136.875 51.3794 134.499C52.1865 136.667 51.6336 140.567 51.4192 142.986L50.292 143.396Z" fill="white"/>
<path d="M59.3372 99.3405C59.4112 97.6689 59.7229 95.8933 59.9568 94.2217C60.1031 99.3344 60.2917 106.021 59.8582 111.127L59.3996 111.085C59.4951 107.086 59.4223 103.333 59.3372 99.3405Z" fill="white"/>
<path d="M108.528 177.281L109.446 177.85C109.825 181.353 110.177 190.47 109.033 193.648C109.229 189.117 109.33 181.604 108.528 177.281Z" fill="white"/>
<path d="M119.533 172.633C120.89 175.229 120.437 180.385 120.359 183.477L119.713 183.306C119.146 180.563 119.466 175.597 119.533 172.633Z" fill="white"/>
<path d="M70.3892 91.5581L70.8833 91.7112L71.3107 94.038C71.3817 96.8607 71.6193 98.9853 70.917 101.722C70.2936 98.5139 70.4222 94.8707 70.3892 91.5581Z" fill="white"/>
<path d="M54.9053 75.6751C55.61 73.6422 55.5806 73.5504 56.8389 71.689L57.4365 72.087C55.776 74.9648 55.7588 80.3837 55.6088 83.8555C55.1673 81.8532 55.0406 77.8671 54.9053 75.6751Z" fill="white"/>
<path d="M55.0632 184.585C56.9895 185.877 58.7867 188.406 59.9311 190.396C57.5382 189.086 56.9504 188.97 55.4251 186.839C55.3039 186.159 55.1024 185.247 55.0632 184.585Z" fill="white"/>
<path d="M58.7853 99.1689L59.337 99.3403C59.4221 103.333 59.4949 107.086 59.3994 111.084L58.8251 111.311C58.6922 107.208 58.7412 103.271 58.7853 99.1689Z" fill="white"/>
<path d="M34.3818 88.1536C35.0921 86.0901 35.6469 84.0389 36.8905 82.2632C36.2788 85.4962 35.2017 87.3085 36.5316 89.4087L36.3841 90.0088L35.026 89.6721L34.3818 88.1536Z" fill="white"/>
<path d="M104.762 203.365C105.886 202.692 106.725 202.428 107.939 201.951L105.212 206.047L103.68 204.345L104.762 203.365Z" fill="white"/>
<path d="M182.429 144.963C183.672 148.551 183.207 154.54 182.62 158.306C182.452 153.695 182.358 149.568 182.429 144.963Z" fill="white"/>
<path d="M54.9052 75.6748C55.0405 77.8669 55.1673 81.853 55.6087 83.8552L55.6351 85.288L55.0405 85.5268C54.2813 82.3428 54.4178 78.8955 54.9052 75.6748Z" fill="white"/>
<path d="M177.016 49.8049C175.742 48.3599 174.229 47.0924 174.001 45.2983C175.773 45.9964 177.242 48.1333 178.346 49.7253L177.016 49.8049Z" fill="white"/>
<path d="M136.439 211.435C137.98 212.562 137.112 212.188 139.227 212.317L137.334 212.923C135.862 212.898 134.961 212.819 133.492 213.021L132.437 211.956L136.439 211.435Z" fill="white"/>
<path d="M191 100.663C191.074 103.02 191.709 110.638 190.396 112.052C190.187 109.529 190.783 103.498 191 100.663Z" fill="white"/>
<path d="M176.303 142.771L176.849 140.493L177.369 140.481C177.916 143.396 177.896 144.032 177.713 147.008L176.303 142.771Z" fill="white"/>
<path d="M141.459 211.833L144.074 212.623C143.428 212.794 139.651 213.786 139.279 213.988L137.334 212.923L139.227 212.317L141.459 211.833Z" fill="white"/>
<path d="M132.522 193.378C132.355 190.745 131.731 183 132.981 181.114C132.788 184.481 132.975 190.549 132.522 193.378Z" fill="white"/>
<path d="M137.926 45.1455C138.625 48.3785 138.512 50.7542 138.552 54.0422L137.806 56.1118C137.739 52.4319 137.842 48.8255 137.926 45.1455Z" fill="white"/>
<path d="M137.926 45.1455L138.818 45.5863C139.303 48.6601 139.072 50.9501 138.941 54.0422H138.551C138.512 50.7542 138.625 48.3785 137.926 45.1455Z" fill="white"/>
<path d="M141.459 211.833C143.148 211.38 144.671 210.688 146.196 211.288C145.063 212.176 145.362 212.053 144.074 212.623L141.459 211.833Z" fill="white"/>
<path d="M94.888 50.3501C94.9106 53.0014 95.09 57.661 94.7441 60.1286C94.0118 56.6997 94.3106 53.7484 94.888 50.3501Z" fill="white"/>
<path d="M99.8416 53.7482C99.7589 51.3724 99.3872 48.366 100.462 46.5107L100.491 53.6318L99.8416 53.7482Z" fill="white"/>
<path d="M34.382 88.1538L35.0261 89.6723C34.2081 91.2031 34.085 91.3317 32.959 92.6665C32.9027 90.5357 33.3864 90.2418 34.382 88.1538Z" fill="white"/>
<path d="M178.347 49.7256L180.266 52.0584L179.233 53.2525L177.017 49.8052L178.347 49.7256Z" fill="white"/>
<path d="M181.885 146.757C182.348 149.99 182.192 150.988 181.327 154.185C181.294 150.964 181.259 149.88 181.885 146.757Z" fill="white"/>
<path d="M100.462 46.5107C101.364 49.3029 101.096 51.4214 101.037 54.3605L100.491 53.6318L100.462 46.5107Z" fill="white"/>
<path d="M119.634 53.9565C119.416 51.8869 118.964 50.9562 119.655 49.2969C120.253 51.6114 120.119 51.7522 119.906 54.0668L119.634 53.9565Z" fill="white"/>
<path d="M188.592 154.723L190.274 155.403C190.132 155.868 189.661 156.885 189.451 157.368L188.789 157.05L188.592 154.723Z" fill="white"/>
<path d="M95.6736 53.3931C96.1261 56.1913 96.2522 57.073 96.1463 59.8896L95.7361 59.859C95.5524 57.9731 95.654 55.3524 95.6736 53.3931Z" fill="white"/>
<path d="M50.2474 109.278C50.2008 106.113 50.3172 105.36 50.9699 102.249C50.9858 105.427 51.0207 106.223 50.2474 109.278Z" fill="white"/>
<path d="M95.7362 59.8589L96.1464 59.8895C96.1268 61.4632 96.422 62.0694 95.6645 63.0552C95.4 62.3143 95.149 61.7693 95.021 61.0039L95.7362 59.8589Z" fill="white"/>
<path d="M138.552 54.042H138.942L138.948 56.3076C138.048 56.3933 138.414 56.5157 137.806 56.1116L138.552 54.042Z" fill="white"/>
<path d="M59.3994 111.084L59.858 111.127L59.8035 111.715L59.4435 113.852L58.792 113.283L58.8251 111.311L59.3994 111.084Z" fill="white"/>
<path d="M50.8721 82.9614C51.1801 84.4003 51.4783 85.0433 51.3154 86.4577C50.8145 85.4168 50.929 84.2167 50.8721 82.9614Z" fill="white"/>
<path d="M99.8416 53.7481L100.491 53.6318L101.037 54.3604L100.697 55.732L100.092 55.628L99.8416 53.7481Z" fill="white"/>
<path d="M50.3877 92.354C50.5083 92.7765 50.8163 93.7317 50.8567 94.1236C50.5726 93.6399 50.5126 92.9602 50.3877 92.354Z" fill="white"/>
</svg>
